# xmcd
#
# Track frame offsets:
#	150
#	13618
#	27198
#	40053
#	49509
#	62086
#	75276
#	87268
#	100207
#	113731
#	125249
#	135429
#	145777
#	160053
#	172351
#	184956
#	201517
#	212478
#	225696
#	237047
#	250292
#	263565
#	275668
#
# Disc length: 3842 seconds
#
# Revision: 0
# Processed by: cddbd v1.5.2PL0 Copyright (c) Steve Scherf et al.
# Submitted via: dBpowerAMP V4.0
#
DISCID=3e0f0017
DTITLE=TAMMY WYNETTE  - TEARS OF FIRE
DYEAR=1900
DGENRE=Country
TTITLE0=YOU CAN STEAL ME
TTITLE1=APARTMENT NO. 9.
TTITLE2=SHE DIDN'T COLOR DADDY
TTITLE3=YOUR GOOD GIRL'S GONNA GO BAD
TTITLE4=WALK THROUGH  THIS WORLD WITH ME
TTITLE5=MY ELUSIVE DREAMS
TTITLE6=I DON'T WANNA PLAY HOUSE
TTITLE7=TAKE ME TO YOUR WORLD
TTITLE8=D.I.V.O.R.C.E.
TTITLE9=SWEET DREAMS
TTITLE10=LONELY STREET
TTITLE11=I BELIEVE
TTITLE12=HE
TTITLE13=STAND BY YOUR MAN
TTITLE14=YOU'LL NEVER WALK ALONE
TTITLE15=HOW GREAT THOU ART
TTITLE16=SINGING MY SONG
TTITLE17=TOO FAR GONE
TTITLE18=THE WAY TO LOVE A MAN
TTITLE19=I'LL SEE HIM THROUGH
TTITLE20=KIDS ( SAY THE DARNDEST THINGS )
TTITLE21=HE LOVES ME ALL THE WAY
TTITLE22=WE SURE CAN LOVE EACH OTHER
EXTD=
EXTT0=
EXTT1=
EXTT2=
EXTT3=
EXTT4=
EXTT5=
EXTT6=
EXTT7=
EXTT8=
EXTT9=
EXTT10=
EXTT11=
EXTT12=
EXTT13=
EXTT14=
EXTT15=
EXTT16=
EXTT17=
EXTT18=
EXTT19=
EXTT20=
EXTT21=
EXTT22=
PLAYORDER=
